<svg xmlns="http://www.w3.org/2000/svg" xmlns:xlink="http://www.w3.org/1999/xlink" width="500" zoomAndPan="magnify" viewBox="0 0 375 374.999991" height="500" preserveAspectRatio="xMidYMid meet" version="1.0"><defs><clipPath id="de22249c02"><path d="M 54 1.972656 L 323 1.972656 L 323 374.722656 L 54 374.722656 Z M 54 1.972656 " clip-rule="nonzero"/></clipPath><clipPath id="9ebe589cbd"><path d="M 1.972656 54 L 374.722656 54 L 374.722656 323 L 1.972656 323 Z M 1.972656 54 " clip-rule="nonzero"/></clipPath><clipPath id="ebe8d878ac"><path d="M 54 1.972656 L 323 1.972656 L 323 374.722656 L 54 374.722656 Z M 54 1.972656 " clip-rule="nonzero"/></clipPath><clipPath id="ce677600a3"><path d="M 1.972656 54 L 374.722656 54 L 374.722656 322 L 1.972656 322 Z M 1.972656 54 " clip-rule="nonzero"/></clipPath><clipPath id="767676ec78"><path d="M 106.273438 106.269531 L 270.480469 106.269531 L 270.480469 270.480469 L 106.273438 270.480469 Z M 106.273438 106.269531 " clip-rule="nonzero"/></clipPath><clipPath id="5fd2cd6a63"><path d="M 188.480469 270.367188 C 200.277344 266.398438 211.71875 261.585938 222.804688 255.929688 C 230.183594 252.175781 237.21875 248.171875 243.914062 243.914062 C 248.152344 237.230469 252.15625 230.191406 255.929688 222.804688 C 261.585938 211.71875 266.398438 200.277344 270.363281 188.480469 C 266.394531 176.683594 261.585938 165.242188 255.929688 154.15625 C 252.175781 146.773438 248.171875 139.738281 243.914062 133.050781 C 237.230469 128.808594 230.195312 124.804688 222.804688 121.03125 C 211.71875 115.375 200.277344 110.566406 188.480469 106.59375 C 176.6875 110.566406 165.246094 115.375 154.160156 121.03125 C 146.777344 124.785156 139.738281 128.789062 133.050781 133.050781 C 128.8125 139.738281 124.804688 146.773438 121.03125 154.15625 C 115.378906 165.242188 110.566406 176.683594 106.597656 188.480469 C 110.566406 200.277344 115.375 211.71875 121.03125 222.804688 C 124.785156 230.179688 128.792969 237.214844 133.050781 243.914062 C 139.738281 248.148438 146.777344 252.15625 154.160156 255.929688 C 165.246094 261.585938 176.683594 266.398438 188.480469 270.367188 M 188.480469 201.894531 C 186.703125 201.890625 184.992188 201.550781 183.351562 200.867188 C 181.707031 200.183594 180.257812 199.214844 179 197.957031 C 177.746094 196.699219 176.777344 195.246094 176.097656 193.601562 C 175.417969 191.960938 175.078125 190.25 175.082031 188.46875 C 175.082031 186.691406 175.421875 184.980469 176.105469 183.339844 C 176.785156 181.695312 177.757812 180.246094 179.015625 178.988281 C 180.273438 177.730469 181.722656 176.761719 183.367188 176.082031 C 185.011719 175.402344 186.722656 175.0625 188.5 175.066406 C 190.277344 175.066406 191.988281 175.40625 193.632812 176.085938 C 195.273438 176.769531 196.726562 177.738281 197.984375 178.996094 C 199.238281 180.253906 200.207031 181.703125 200.890625 183.347656 C 201.570312 184.988281 201.910156 186.699219 201.910156 188.480469 C 201.910156 190.261719 201.574219 191.972656 200.890625 193.621094 C 200.210938 195.265625 199.242188 196.71875 197.980469 197.980469 C 196.722656 199.238281 195.269531 200.210938 193.621094 200.890625 C 191.976562 201.570312 190.261719 201.910156 188.480469 201.910156 Z M 188.480469 201.894531 " clip-rule="evenodd"/></clipPath></defs><g clip-path="url(#de22249c02)"><path fill="#00fffc" d="M 63.921875 218.777344 C 69.429688 194.035156 78.71875 167.960938 91.867188 142.128906 C 93.203125 139.515625 94.5625 136.925781 95.945312 134.371094 C 94.660156 135.332031 93.378906 136.292969 92.101562 137.257812 C 91.808594 137.835938 91.503906 138.40625 91.207031 138.984375 C 77.832031 165.265625 68.183594 191.804688 62.214844 217.085938 C 62.78125 217.652344 63.347656 218.214844 63.921875 218.777344 M 176.253906 346.988281 C 147.789062 363.691406 119.6875 368.195312 97.296875 356.800781 C 63.535156 339.636719 51.339844 290.6875 61.269531 232.265625 C 60.628906 231.679688 60 231.085938 59.375 230.5 C 47.28125 294.984375 60.039062 349.441406 97 368.253906 C 122.34375 381.148438 154.535156 374.972656 186.777344 354.433594 C 183.203125 352.085938 179.695312 349.605469 176.253906 346.988281 Z M 215.203125 316.601562 C 207.351562 324.351562 198.96875 331.472656 190.054688 337.964844 C 193.484375 340.371094 196.988281 342.640625 200.558594 344.777344 C 210.566406 337.070312 219.929688 328.648438 228.648438 319.515625 C 224.148438 318.660156 219.667969 317.695312 215.203125 316.617188 Z M 244.992188 282.082031 C 239.867188 289.039062 234.589844 295.617188 229.15625 301.8125 C 233.632812 302.632812 238.117188 303.335938 242.613281 303.914062 C 251.984375 292.640625 260.589844 280.804688 268.425781 268.410156 C 260.925781 273.175781 253.113281 277.738281 244.992188 282.097656 Z M 274.039062 234.804688 C 266.390625 249.875 257.671875 264.300781 247.882812 278.074219 C 256.097656 273.449219 263.960938 268.59375 271.46875 263.511719 C 276.46875 255.332031 281.230469 246.8125 285.757812 237.949219 C 336.28125 138.664062 333.683594 36.019531 279.960938 8.679688 C 233.023438 -15.179688 162.570312 26.335938 111.839844 103.425781 C 113.550781 102.378906 115.265625 101.347656 116.988281 100.332031 C 163.953125 33.640625 226.421875 -1.324219 268.613281 20.144531 C 318.921875 45.746094 321.367188 141.863281 274.039062 234.832031 Z M 274.039062 234.804688 " fill-opacity="1" fill-rule="evenodd"/></g><g clip-path="url(#9ebe589cbd)"><path fill="#00fffc" d="M 304.71875 135.011719 C 285.589844 118.933594 263.089844 103.976562 237.980469 91.207031 C 229.320312 86.800781 220.660156 82.800781 211.996094 79.210938 C 210.984375 79.464844 209.964844 79.722656 208.953125 79.988281 C 217.570312 83.523438 226.199219 87.484375 234.84375 91.871094 C 261.425781 105.398438 284.867188 121.527344 304.199219 138.839844 C 304.386719 137.5625 304.5625 136.289062 304.730469 135.011719 M 151.988281 62.601562 C 161.914062 64.585938 171.714844 67.078125 181.386719 70.074219 C 182.378906 69.722656 183.375 69.375 184.371094 69.03125 C 174.027344 65.714844 163.800781 62.984375 153.800781 60.835938 C 153.1875 61.445312 152.585938 62.027344 151.988281 62.601562 Z M 75.863281 60.796875 C 95.042969 56.984375 117.550781 56.972656 141.773438 60.796875 C 142.367188 60.148438 142.96875 59.5 143.578125 58.855469 C 119.648438 54.625 97.160156 53.847656 77.449219 56.488281 C 76.894531 57.894531 76.363281 59.328125 75.863281 60.796875 Z M 89.984375 241.320312 C 30.089844 195.378906 -0.191406 137.246094 20.148438 97.296875 C 27.59375 82.664062 41.003906 72.082031 58.570312 65.601562 C 58.988281 63.675781 59.445312 61.789062 59.941406 59.9375 C 36.167969 66.277344 18.042969 78.652344 8.710938 97 C -15.167969 143.925781 26.316406 214.332031 103.363281 265.066406 C 98.613281 257.3125 94.15625 249.394531 89.984375 241.316406 Z M 142.132812 274.046875 C 135.207031 270.523438 128.496094 266.828125 122.003906 262.964844 C 126.816406 270.496094 131.933594 277.816406 137.355469 284.929688 L 138.984375 285.761719 C 238.269531 336.289062 340.917969 333.691406 368.253906 279.96875 C 386.902344 243.320312 365.679688 192.347656 318.789062 147.609375 C 318.507812 149.085938 318.214844 150.566406 317.910156 152.039062 C 356.59375 192.074219 373.265625 236.296875 356.816406 268.609375 C 331.21875 318.917969 235.113281 321.363281 142.132812 274.039062 Z M 142.132812 274.046875 " fill-opacity="1" fill-rule="evenodd"/></g><g clip-path="url(#ebe8d878ac)"><path fill="#ffffff" d="M 180.425781 26.152344 C 154.34375 12.632812 128.933594 9.671875 108.347656 20.144531 C 76.875 36.164062 64.140625 79.792969 70.613281 132.976562 C 66.585938 136.359375 62.65625 139.835938 58.824219 143.40625 C 47.699219 80.25 60.628906 27.199219 97 8.707031 C 122.191406 -4.109375 154.152344 1.917969 186.199219 22.160156 C 184.253906 23.453125 182.328125 24.78125 180.425781 26.152344 M 223.871094 58.035156 C 213.070312 47.722656 201.972656 39.015625 190.894531 32.128906 C 192.703125 31.058594 194.527344 30.03125 196.359375 29.039062 C 207.1875 36.886719 217.941406 46.3125 228.367188 57.128906 C 226.867188 57.421875 225.367188 57.722656 223.871094 58.035156 Z M 297.453125 169.191406 C 293.800781 160.183594 289.679688 151.164062 285.09375 142.125 C 271.820312 116.042969 256.042969 92.972656 239.082031 73.851562 C 240.34375 73.675781 241.609375 73.488281 242.863281 73.34375 C 258.59375 92.246094 273.214844 114.351562 285.75 138.980469 C 290.355469 148.035156 294.515625 157.09375 298.238281 166.160156 C 297.980469 167.175781 297.722656 168.191406 297.453125 169.199219 Z M 314.921875 227.957031 C 312.773438 216.570312 309.957031 205.347656 306.472656 194.292969 C 306.832031 193.300781 307.167969 192.304688 307.511719 191.3125 C 311.242188 202.746094 314.316406 214.351562 316.734375 226.132812 C 316.132812 226.746094 315.53125 227.359375 314.921875 227.964844 Z M 316.171875 301.085938 C 320.140625 281.140625 319.992188 257.59375 315.695312 232.269531 C 316.328125 231.683594 316.957031 231.089844 317.585938 230.5 C 322.277344 255.503906 323.222656 279.003906 320.472656 299.5 C 319.066406 300.058594 317.632812 300.589844 316.171875 301.09375 Z M 102.921875 234.832031 C 150.234375 327.800781 229.363281 382.414062 279.667969 356.816406 C 294.296875 349.371094 304.871094 335.960938 311.355469 318.402344 C 313.28125 317.980469 315.171875 317.523438 317.023438 317.027344 C 310.6875 340.792969 298.308594 358.917969 279.960938 368.253906 C 226.242188 395.589844 141.738281 337.265625 91.210938 237.96875 C 78.351562 212.707031 68.941406 187.210938 62.933594 162.804688 C 66.429688 159.261719 70.035156 155.8125 73.757812 152.453125 C 79.0625 178.882812 88.761719 206.996094 102.921875 234.832031 Z M 102.921875 234.832031 " fill-opacity="1" fill-rule="evenodd"/></g><g clip-path="url(#ce677600a3)"><path fill="#00fefb" d="M 350.550781 180.914062 C 364.292969 154.660156 367.355469 129.0625 356.816406 108.34375 C 349.878906 94.722656 337.769531 84.617188 321.957031 78.054688 C 321.203125 72.089844 320.074219 66.195312 318.578125 60.371094 C 341.582031 66.828125 359.125 79.0625 368.253906 97.007812 C 381.140625 122.328125 374.988281 154.480469 354.503906 186.6875 C 353.222656 184.746094 351.898438 182.824219 350.535156 180.914062 M 208.441406 297.183594 C 217.230469 293.601562 226.027344 289.574219 234.835938 285.101562 C 284.945312 259.59375 323.894531 224.851562 345.1875 190.359375 C 346.261719 192.179688 347.296875 194.023438 348.289062 195.886719 C 324.492188 228.90625 286.042969 261.3125 238 285.75 C 229.160156 290.246094 220.320312 294.316406 211.480469 297.960938 C 210.46875 297.703125 209.457031 297.445312 208.441406 297.183594 Z M 158.183594 313.066406 C 165.988281 311.324219 173.929688 309.214844 181.953125 306.714844 C 182.945312 307.070312 183.941406 307.417969 184.933594 307.757812 C 176.476562 310.488281 168.121094 312.820312 159.867188 314.761719 C 159.300781 314.1875 158.742188 313.617188 158.183594 313.042969 Z M 65.023438 313.5 C 86.433594 319.867188 113.101562 320.757812 142.230469 316.101562 C 142.824219 316.742188 143.414062 317.382812 144.015625 318.023438 C 115.484375 323.117188 89.003906 323.308594 66.804688 318.65625 C 66.167969 316.953125 65.574219 315.234375 65.023438 313.5 Z M 30.980469 198.980469 C 13.4375 228.035156 8.523438 256.824219 20.15625 279.667969 C 27.433594 293.972656 40.417969 304.402344 57.410156 310.921875 C 57.824219 312.859375 58.28125 314.785156 58.78125 316.695312 C 35.578125 310.277344 17.890625 298.007812 8.710938 279.964844 C -4.410156 254.171875 2.210938 221.292969 23.625 188.484375 C 25.910156 191.988281 28.363281 195.488281 30.980469 198.980469 Z M 142.136719 102.921875 C 96.464844 126.160156 60.078125 157.074219 37.867188 188.480469 C 35.398438 184.980469 33.101562 181.476562 30.980469 177.96875 C 54.917969 146.03125 92.449219 114.886719 138.984375 91.207031 C 195.785156 62.300781 253.683594 50.785156 297.957031 56.285156 C 300.035156 61.46875 301.691406 66.78125 302.933594 72.222656 C 260.300781 63.101562 200.597656 73.171875 142.132812 102.921875 Z M 142.136719 102.921875 " fill-opacity="1" fill-rule="evenodd"/></g><path fill="#00fffc" d="M 188.480469 270.367188 C 200.277344 266.398438 211.71875 261.585938 222.804688 255.929688 C 230.183594 252.175781 237.21875 248.171875 243.914062 243.914062 C 248.152344 237.230469 252.15625 230.191406 255.929688 222.804688 C 261.585938 211.71875 266.398438 200.277344 270.363281 188.480469 C 266.394531 176.683594 261.585938 165.242188 255.929688 154.15625 C 252.175781 146.773438 248.171875 139.738281 243.914062 133.050781 C 237.230469 128.808594 230.195312 124.804688 222.804688 121.03125 C 211.71875 115.375 200.277344 110.566406 188.480469 106.59375 C 176.6875 110.566406 165.246094 115.375 154.160156 121.03125 C 146.777344 124.785156 139.738281 128.789062 133.050781 133.050781 C 128.8125 139.738281 124.804688 146.773438 121.03125 154.15625 C 115.378906 165.242188 110.566406 176.683594 106.597656 188.480469 C 110.566406 200.277344 115.375 211.71875 121.03125 222.804688 C 124.785156 230.179688 128.792969 237.214844 133.050781 243.914062 C 139.738281 248.148438 146.777344 252.15625 154.160156 255.929688 C 165.246094 261.585938 176.683594 266.398438 188.480469 270.367188 M 188.480469 201.894531 C 187.601562 201.894531 186.726562 201.804688 185.863281 201.632812 C 185 201.460938 184.164062 201.207031 183.351562 200.867188 C 182.535156 200.53125 181.765625 200.117188 181.03125 199.625 C 180.300781 199.136719 179.625 198.578125 179 197.957031 C 178.378906 197.332031 177.824219 196.65625 177.335938 195.921875 C 176.847656 195.191406 176.433594 194.417969 176.097656 193.601562 C 175.761719 192.789062 175.507812 191.949219 175.335938 191.085938 C 175.164062 190.222656 175.082031 189.351562 175.082031 188.46875 C 175.082031 187.589844 175.167969 186.71875 175.339844 185.851562 C 175.511719 184.988281 175.769531 184.152344 176.105469 183.339844 C 176.441406 182.523438 176.855469 181.75 177.347656 181.019531 C 177.835938 180.289062 178.390625 179.609375 179.015625 178.988281 C 179.636719 178.367188 180.316406 177.8125 181.046875 177.320312 C 181.78125 176.832031 182.554688 176.421875 183.367188 176.082031 C 184.179688 175.746094 185.019531 175.492188 185.882812 175.320312 C 186.746094 175.148438 187.621094 175.0625 188.5 175.066406 C 189.382812 175.066406 190.253906 175.152344 191.117188 175.324219 C 191.980469 175.496094 192.820312 175.75 193.632812 176.085938 C 194.445312 176.425781 195.21875 176.835938 195.949219 177.328125 C 196.683594 177.816406 197.359375 178.371094 197.984375 178.996094 C 198.605469 179.617188 199.160156 180.296875 199.648438 181.027344 C 200.140625 181.761719 200.550781 182.535156 200.890625 183.347656 C 201.226562 184.160156 201.480469 185 201.652344 185.863281 C 201.824219 186.726562 201.910156 187.597656 201.910156 188.480469 C 201.910156 189.359375 201.824219 190.234375 201.65625 191.101562 C 201.484375 191.964844 201.230469 192.804688 200.890625 193.621094 C 200.554688 194.4375 200.140625 195.210938 199.652344 195.945312 C 199.160156 196.675781 198.605469 197.355469 197.980469 197.980469 C 197.355469 198.601562 196.679688 199.160156 195.945312 199.648438 C 195.210938 200.140625 194.4375 200.554688 193.621094 200.890625 C 192.808594 201.226562 191.96875 201.480469 191.101562 201.652344 C 190.238281 201.824219 189.363281 201.910156 188.480469 201.90625 Z M 188.480469 201.894531 " fill-opacity="1" fill-rule="evenodd"/><g clip-path="url(#767676ec78)"><g clip-path="url(#5fd2cd6a63)"><path fill="#00fffc" d="M 106.59375 106.589844 L 270.367188 106.589844 L 270.367188 270.367188 L 106.59375 270.367188 Z M 106.59375 106.589844 " fill-opacity="1" fill-rule="nonzero"/></g></g></svg>